:FULLY-SPECIFIED
:FORCE-ALL-JOINTS-BE-3DOF
:DEGREES
747
root 4.1551 16.724 14.4831 -163.429 -8.85905 189.076
lfemur -32.3123 1.20259 -15.1348
ltibia 45.7959 0 0
lfoot -30.1792 6.00508 0
ltoes 5.02657 0 0
rfemur -27.8693 -32.6071 11.2585
rtibia 106.555 0 0
rfoot 15.1242 4.04426 0
rtoes 16.264 0 0
lowerback 2.71683 6.74293 -2.11192
upperback -1.29203 8.84818 -1.29762
thorax -2.94231 4.42639 -0.627029
lowerneck -6.54281 -8.54777 -1.3498
upperneck -2.19039 -11.5211 5.50978
head 0.832725 -5.79154 1.59962
lclavicle 2.27542e-14 4.02217e-14 0
lhumerus -54.6449 -5.18837 75.5358
lradius 47.934 0 0
lwrist 16.196 0 0
lhand -28.2661 -3.97151 0
lfingers 7.12502 0 0
lthumb -1.64282 25.9934 0
rclavicle 2.27542e-14 4.02217e-14 0
rhumerus 26.1846 39.4067 -67.4581
rradius 96.3563 0 0
rwrist -0.888111 0 0
rhand -20.9263 -20.6998 0
rfingers 7.12502 0 0
rthumb 5.4441 -770.551 0
748
root 4.11579 16.5847 14.6785 -163.293 -6.82621 188.87
lfemur -34.0258 3.01308 -16.2683
ltibia 48.2933 0 0
lfoot -30.8287 7.00106 0
ltoes 5.1005 0 0
rfemur -28.0225 -32.8294 13.0116
rtibia 104.826 0 0
rfoot 14.5247 3.15611 0
rtoes 16.326 0 0
lowerback 2.96023 6.51365 -2.52855
upperback -1.15894 8.50956 -1.48103
thorax -2.97316 4.25996 -0.593878
lowerneck -6.39923 -8.6444 -1.52836
upperneck -2.2555 -11.65 5.93703
head 0.833111 -5.85871 1.7634
lclavicle 1.09824e-14 3.6501e-14 0
lhumerus -53.3991 -4.92973 77.7659
lradius 48.1503 0 0
lwrist 15.2364 0 0
lhand -28.9858 -4.17112 0
lfingers 7.12502 0 0
lthumb -2.33795 25.789 0
rclavicle 1.09824e-14 3.6501e-14 0
rhumerus 23.0381 42.2028 -70.4449
rradius 96.3726 0 0
rwrist 0.226453 0 0
rhand -19.1576 -19.2956 0
rfingers 7.12502 0 0
rthumb 7.15189 -769.11 0
749
root 4.07105 16.4576 14.8682 -163.193 -4.64454 188.697
lfemur -35.6069 4.83057 -17.3622
ltibia 50.5731 0 0
lfoot -31.3902 7.91563 0
ltoes 5.31952 0 0
rfemur -28.0603 -32.9966 14.6267
rtibia 103.052 0 0
rfoot 14.0424 2.21177 0
rtoes 16.5918 0 0
lowerback 3.17793 6.30423 -2.90162
upperback -1.03572 8.20389 -1.67783
thorax -2.99159 4.11093 -0.59629
lowerneck -6.25849 -8.73214 -1.68502
upperneck -2.29483 -11.7603 6.29614
head 0.835493 -5.91203 1.90267
lclavicle 5.09709e-16 3.24199e-14 0
lhumerus -52.3087 -4.85574 79.8336
lradius 48.6059 0 0
lwrist 14.3948 0 0
lhand -29.5825 -4.41963 0
lfingers 7.12502 0 0
lthumb -2.91423 25.5366 0
rclavicle 5.09709e-16 3.24199e-14 0
rhumerus 19.7349 44.7141 -73.4859
rradius 96.1813 0 0
rwrist 1.25593 0 0
rhand -17.6821 -18.1209 0
rfingers 7.12502 0 0
rthumb 8.57651 -767.905 0
750
root 4.01886 16.3437 15.0506 -163.144 -2.24277 188.58
lfemur -36.9621 6.6426 -18.4013
ltibia 52.5687 0 0
lfoot -32.0197 8.77153 0
ltoes 5.65235 0 0
rfemur -27.9354 -33.0942 16.05
rtibia 101.216 0 0
rfoot 13.6582 1.2257 0
rtoes 17.0552 0 0
lowerback 3.35945 6.13388 -3.20855
upperback -0.926159 7.96056 -1.88105
thorax -2.99375 3.99454 -0.639791
lowerneck -6.12193 -8.80708 -1.79985
upperneck -2.297 -11.8445 6.54736
head 0.839379 -5.94611 2.00189
lclavicle -7.55382e-15 2.8625e-14 0
lhumerus -51.519 -4.97593 81.7024
lradius 49.374 0 0
lwrist 13.7527 0 0
lhand -29.9993 -4.72184 0
lfingers 7.12502 0 0
lthumb -3.31682 25.2321 0
rclavicle -7.55382e-15 2.8625e-14 0
rhumerus 16.3743 46.8227 -76.5508
rradius 95.7332 0 0
rwrist 2.13744 0 0
rhand -16.6745 -17.2941 0
rfingers 7.12502 0 0
rthumb 9.54937 -767.058 0
751
root 3.95937 16.2442 15.2264 -163.176 0.375163 188.496
lfemur -38.1058 8.51256 -19.4125
ltibia 54.2813 0 0
lfoot -32.6248 9.46024 0
ltoes 6.15777 0 0
rfemur -27.6347 -33.0972 17.2835
rtibia 99.3107 0 0
rfoot 13.512 0.198257 0
rtoes 18.0209 0 0
lowerback 3.51527 5.99934 -3.46031
upperback -0.824831 7.77601 -2.11277
thorax -2.97765 3.90989 -0.741006
lowerneck -5.98394 -8.87578 -1.87557
upperneck -2.25574 -11.9063 6.68993
head 0.8462 -5.95971 2.06136
lclavicle -1.45536e-14 2.40698e-14 0
lhumerus -50.9996 -5.41731 83.3716
lradius 50.5629 0 0
lwrist 13.2698 0 0
lhand -30.2431 -5.13807 0
lfingers 7.12502 0 0
lthumb -3.55229 24.8151 0
rclavicle -1.45536e-14 2.40698e-14 0
rhumerus 12.7145 48.5065 -79.8243
rradius 94.9308 0 0
rwrist 2.88617 0 0
rhand -16.2302 -16.8588 0
rfingers 7.12502 0 0
rthumb 9.97849 -766.617 0
752
root 3.8944 16.1585 15.3973 -163.281 3.14457 188.415
lfemur -39.126 10.4727 -20.4184
ltibia 55.7706 0 0
lfoot -33.0357 9.92535 0
ltoes 6.88321 0 0
rfemur -27.1961 -33.0098 18.3754
rtibia 97.3523 0 0
rfoot 13.6674 -0.883296 0
rtoes 19.5958 0 0
lowerback 3.65823 5.88248 -3.68063
upperback -0.726564 7.6229 -2.38658
thorax -2.94602 3.84314 -0.900563
lowerneck -5.84148 -8.94392 -1.93079
upperneck -2.17904 -11.9534 6.75895
head 0.85687 -5.95719 2.095
lclavicle -2.19249e-14 1.78304e-14 0
lhumerus -50.6112 -6.21375 84.8737
lradius 52.1436 0 0
lwrist 12.8601 0 0
lhand -30.3666 -5.68412 0
lfingers 7.12502 0 0
lthumb -3.67159 24.269 0
rclavicle -2.19249e-14 1.78304e-14 0
rhumerus 8.58653 49.8633 -83.3949
rradius 93.7851 0 0
rwrist 3.56305 0 0
rhand -16.2256 -16.7247 0
rfingers 7.12502 0 0
rthumb 9.98305 -766.489 0
753
root 3.82447 16.085 15.5633 -163.427 6.04564 188.354
lfemur -40.0392 12.4637 -21.3969
ltibia 57.0573 0 0
lfoot -33.2928 10.2678 0
ltoes 7.7803 0 0
rfemur -26.6484 -32.8621 19.3418
rtibia 95.3531 0 0
rfoot 13.9907 -2.02413 0
rtoes 21.4775 0 0
lowerback 3.78132 5.78013 -3.86605
upperback -0.635516 7.49501 -2.68272
thorax -2.90215 3.7901 -1.1
lowerneck -5.6997 -9.00622 -1.96945
upperneck -2.077 -11.9846 6.76841
head 0.870123 -5.94159 2.10767
lclavicle -2.86922e-14 1.07379e-14 0
lhumerus -50.3356 -7.23507 86.2215
lradius 53.9836 0 0
lwrist 12.5368 0 0
lhand -30.382 -6.2981 0
lfingers 7.12502 0 0
lthumb -3.68642 23.6557 0
rclavicle -2.86922e-14 1.07379e-14 0
rhumerus 4.19914 50.9544 -87.088
rradius 92.41 0 0
rwrist 4.17388 0 0
rhand -16.5074 -16.8085 0
rfingers 7.12502 0 0
rthumb 9.71124 -766.585 0
